<svg width="26" height="26" viewBox="0 0 26 26" fill="none" xmlns="http://www.w3.org/2000/svg">
<g clip-path="url(#clip0_10940_1424)">
<path d="M13 1C19.63 1 25 6.37 25 13C25 19.63 19.63 25 13 25C6.37 25 1 19.63 1 13C1 6.37 6.37 1 13 1Z" fill="white"/>
<path d="M5.35342 16.8676L4.39882 17.8222L8.22427 21.6476L9.17886 20.693L5.35342 16.8676Z" fill="#3C3C3B"/>
<path d="M17.7234 4.47961L16.7688 5.43421L20.5943 9.25966L21.5489 8.30506L17.7234 4.47961Z" fill="#3C3C3B"/>
<path d="M16.7736 20.6826L17.7282 21.6372L21.5537 17.8117L20.5991 16.8571L16.7736 20.6826Z" fill="#3C3C3B"/>
<path d="M4.39362 8.32054L5.34821 9.27513L9.17366 5.44969L8.21906 4.49509L4.39362 8.32054Z" fill="#3C3C3B"/>
<path d="M13 7.73999C10.09 7.73999 7.73999 10.09 7.73999 13H18.26C18.26 10.09 15.91 7.73999 13 7.73999Z" fill="#E94646"/>
<path d="M13 18.26C10.09 18.26 7.73999 15.91 7.73999 13H18.26C18.26 15.91 15.91 18.26 13 18.26Z" fill="#0053A2"/>
</g>
<path d="M13 0.5C19.9036 0.5 25.5 6.09644 25.5 13C25.5 19.9036 19.9036 25.5 13 25.5C6.09644 25.5 0.5 19.9036 0.5 13C0.5 6.09644 6.09644 0.5 13 0.5Z" stroke="#1C1C1E" stroke-opacity="0.1"/>
<defs>
<clipPath id="clip0_10940_1424">
<path d="M1 13C1 6.37258 6.37258 1 13 1C19.6274 1 25 6.37258 25 13C25 19.6274 19.6274 25 13 25C6.37258 25 1 19.6274 1 13Z" fill="white"/>
</clipPath>
</defs>
</svg>
