<svg width="26" height="26" viewBox="0 0 26 26" fill="none" xmlns="http://www.w3.org/2000/svg">
<g clip-path="url(#clip0_10940_1423)">
<path d="M13 25C19.6274 25 25 19.6274 25 13C25 6.37258 19.6274 1 13 1C6.37258 1 1 6.37258 1 13C1 19.6274 6.37258 25 13 25Z" fill="#E94646"/>
<path d="M6.46999 11.62C6.32999 11.52 6.29999 11.35 6.37999 11.12L6.97999 9.33L5.43999 8.22C5.23999 8.07999 5.15999 7.92 5.20999 7.76C5.26999 7.6 5.41999 7.52 5.65999 7.52H7.54999L8.11999 5.73C8.19999 5.5 8.31999 5.37 8.48999 5.37C8.65999 5.37 8.77999 5.5 8.85999 5.73L9.42999 7.52H11.32C11.56 7.52 11.72 7.6 11.77 7.76C11.83 7.92 11.74 8.07999 11.54 8.22L9.99999 9.33L10.6 11.12C10.68 11.35 10.65 11.52 10.51 11.62C10.37 11.73 10.2 11.69 9.99999 11.55L8.47999 10.43L6.95999 11.55C6.75999 11.69 6.58999 11.73 6.44999 11.62H6.46999Z" fill="#FFCC00"/>
<path d="M15.47 9.07002C15.4 9.02002 15.39 8.93002 15.43 8.81002L15.74 7.90002L14.96 7.34002C14.86 7.27002 14.82 7.19002 14.85 7.11002C14.88 7.03002 14.96 6.99002 15.08 6.99002H16.04L16.33 6.08002C16.37 5.96002 16.43 5.90002 16.52 5.90002C16.61 5.90002 16.67 5.96002 16.71 6.08002L17 6.99002H17.96C18.08 6.99002 18.16 7.03002 18.19 7.11002C18.22 7.19002 18.18 7.27002 18.08 7.34002L17.3 7.90002L17.6 8.81002C17.64 8.93002 17.63 9.01002 17.56 9.07002C17.49 9.12002 17.4 9.11002 17.3 9.03002L16.53 8.46002L15.76 9.03002C15.66 9.10002 15.57 9.12002 15.5 9.07002H15.47Z" fill="#FFCC00"/>
<path d="M6.47001 18.07C6.40001 18.02 6.39001 17.93 6.43001 17.81L6.74001 16.9L5.96001 16.34C5.86001 16.27 5.82001 16.19 5.85001 16.11C5.88001 16.03 5.96001 15.99 6.08001 15.99H7.04001L7.33001 15.08C7.37001 14.96 7.43001 14.9 7.52001 14.9C7.61001 14.9 7.67001 14.96 7.71001 15.08L8.00001 15.99H8.96001C9.08001 15.99 9.16001 16.03 9.19001 16.11C9.22001 16.19 9.18001 16.27 9.08001 16.34L8.30001 16.9L8.60001 17.81C8.64001 17.93 8.63001 18.01 8.56001 18.07C8.49001 18.12 8.40001 18.11 8.30001 18.03L7.53001 17.46L6.76001 18.03C6.66001 18.1 6.57001 18.12 6.50001 18.07H6.47001Z" fill="#FFCC00"/>
<path d="M13.47 16.07C13.4 16.02 13.39 15.93 13.43 15.81L13.74 14.9L12.96 14.34C12.86 14.27 12.82 14.19 12.85 14.11C12.88 14.03 12.96 13.99 13.08 13.99H14.04L14.33 13.08C14.37 12.96 14.43 12.9 14.52 12.9C14.61 12.9 14.67 12.96 14.71 13.08L15 13.99H15.96C16.08 13.99 16.16 14.03 16.19 14.11C16.22 14.19 16.18 14.27 16.08 14.34L15.3 14.9L15.6 15.81C15.64 15.93 15.63 16.01 15.56 16.07C15.49 16.12 15.4 16.11 15.3 16.03L14.53 15.46L13.76 16.03C13.66 16.1 13.57 16.12 13.5 16.07H13.47Z" fill="#FFCC00"/>
</g>
<path d="M13 0.5C19.9036 0.5 25.5 6.09644 25.5 13C25.5 19.9036 19.9036 25.5 13 25.5C6.09644 25.5 0.5 19.9036 0.5 13C0.5 6.09644 6.09644 0.5 13 0.5Z" stroke="#1C1C1E" stroke-opacity="0.1"/>
<defs>
<clipPath id="clip0_10940_1423">
<path d="M1 13C1 6.37258 6.37258 1 13 1C19.6274 1 25 6.37258 25 13C25 19.6274 19.6274 25 13 25C6.37258 25 1 19.6274 1 13Z" fill="white"/>
</clipPath>
</defs>
</svg>
